<?xml version="1.0" encoding="iso-8859-1"?>
<!-- Generator: Adobe Illustrator 21.0.0, SVG Export Plug-In . SVG Version: 6.00 Build 0)  -->
<svg version="1.1" id="Capa_1" xmlns="http://www.w3.org/2000/svg" xmlns:xlink="http://www.w3.org/1999/xlink" x="0px" y="0px"
	 viewBox="0 0 587.697 587.697" style="enable-background:new 0 0 587.697 587.697;" xml:space="preserve">
<g>
	<g>
		<g id="flat_21_">
			<path style="fill:#4398D1;" d="M91.194,0h405.308c16.79,0,30.398,13.608,30.398,30.398v526.9
				c0,16.79-13.608,30.398-30.398,30.398H91.194c-16.79,0-30.398-13.608-30.398-30.398v-526.9C60.796,13.608,74.404,0,91.194,0z"/>
			<path style="fill:#3E8CC7;" d="M496.502,0H486.37L60.796,425.573v131.725c0,16.79,13.608,30.398,30.398,30.398l0,0h405.308
				c16.79,0,30.398-13.608,30.398-30.398l0,0v-526.9C526.9,13.608,513.292,0,496.502,0z"/>
			<rect x="101.327" y="50.663" style="fill:#E34B87;" width="385.043" height="81.062"/>
			<rect x="131.725" y="81.062" style="fill:#BF3D75;" width="60.796" height="20.265"/>
			<rect x="212.787" y="81.062" style="fill:#BF3D75;" width="60.796" height="20.265"/>
			<rect x="293.848" y="81.062" style="fill:#BF3D75;" width="60.796" height="20.265"/>
			<rect x="374.91" y="81.062" style="fill:#BF3D75;" width="60.796" height="20.265"/>
			<rect x="101.327" y="172.256" style="fill:#E34B87;" width="385.043" height="141.858"/>
			<polygon style="fill:#BF3D75;" points="323.162,243.185 486.37,183.057 486.37,172.256 457.056,172.256 293.848,232.383 
				130.641,172.256 101.327,172.256 101.327,183.057 264.534,243.185 101.327,303.312 101.327,314.114 130.641,314.114 
				293.848,253.986 457.056,314.114 486.37,314.114 486.37,303.312 			"/>
			<rect x="101.327" y="486.37" style="fill:#2A7FBF;" width="101.327" height="20.265"/>
			<rect x="101.327" y="526.9" style="fill:#2A7FBF;" width="101.327" height="20.265"/>
			<rect x="101.327" y="354.644" style="fill:#E34B87;" width="101.327" height="101.327"/>
			<polygon style="fill:#BF3D75;" points="166.318,405.308 202.654,368.972 202.654,354.644 188.326,354.644 151.99,390.98 
				115.655,354.644 101.327,354.644 101.327,368.972 137.663,405.308 101.327,441.644 101.327,455.971 115.655,455.971 
				151.99,419.636 188.326,455.971 202.654,455.971 202.654,441.644 			"/>
			<rect x="243.185" y="486.37" style="fill:#2A7FBF;" width="101.327" height="20.265"/>
			<rect x="243.185" y="526.9" style="fill:#2A7FBF;" width="101.327" height="20.265"/>
			<rect x="243.185" y="354.644" style="fill:#E34B87;" width="101.327" height="101.327"/>
			<polygon style="fill:#BF3D75;" points="308.176,405.308 344.512,368.972 344.512,354.644 330.184,354.644 293.848,390.98 
				257.512,354.644 243.185,354.644 243.185,368.972 279.521,405.308 243.185,441.644 243.185,455.971 257.512,455.971 
				293.848,419.636 330.184,455.971 344.512,455.971 344.512,441.644 			"/>
			<rect x="385.043" y="486.37" style="fill:#2A7FBF;" width="101.327" height="20.265"/>
			<rect x="385.043" y="526.9" style="fill:#2A7FBF;" width="101.327" height="20.265"/>
			<rect x="385.043" y="354.644" style="fill:#E34B87;" width="101.327" height="101.327"/>
			<polygon style="fill:#BF3D75;" points="450.034,405.308 486.37,368.972 486.37,354.644 472.042,354.644 435.706,390.98 
				399.37,354.644 385.043,354.644 385.043,368.972 421.378,405.308 385.043,441.644 385.043,455.971 399.37,455.971 
				435.706,419.636 472.042,455.971 486.37,455.971 486.37,441.644 			"/>
		</g>
	</g>
</g>
<g>
</g>
<g>
</g>
<g>
</g>
<g>
</g>
<g>
</g>
<g>
</g>
<g>
</g>
<g>
</g>
<g>
</g>
<g>
</g>
<g>
</g>
<g>
</g>
<g>
</g>
<g>
</g>
<g>
</g>
</svg>
